<svg width="640" height="1024" xmlns="http://www.w3.org/2000/svg">

 <g>
  <title>background</title>
  <rect fill="none" id="canvas_background" height="402" width="582" y="-1" x="-1"/>
 </g>
 <g>
  <title>Layer 1</title>
  <path fill="#ffffff" id="svg_1" d="m576,0l-512,0c-35.312,0 -64,28.688 -64,64l0,896c0,35.375 28.688,64 64,64l512,0c35.375,0 64,-28.625 64,-64l0,-896c0,-35.312 -28.625,-64 -64,-64zm-288,64l64,0c17.625,0 32,14.344 32,32s-14.375,32 -32,32l-64,0c-17.656,0 -32,-14.344 -32,-32s14.344,-32 32,-32zm64,896l-64,0c-17.656,0 -32,-14.375 -32,-32s14.344,-32 32,-32l64,0c17.625,0 32,14.375 32,32s-14.375,32 -32,32zm224,-128l-512,0l0,-640l512,0l0,640z"/>
 </g>
</svg>