<svg width="48" height="48" xmlns="http://www.w3.org/2000/svg">

 <g>
  <title>background</title>
  <rect fill="none" id="canvas_background" height="402" width="582" y="-1" x="-1"/>
 </g>
 <g>
  <title>Layer 1</title>
  <rect fill="#ffffff" id="svg_2" y="4.947" x="41.574" width="4.495" transform="matrix(0.7071,-0.7071,0.7071,0.7071,6.8116,33.4817) " height="7.143"/>
  <polygon fill="#ffffff" id="svg_3" points="22.259,25.049 22.216,25.049 14.876,32.389 14.876,32.43 14.876,37 20.405,37 26.828,30.578 26.828,30.559    43.295,14.092 38.255,9.053  "/>
  <polygon fill="#ffffff" id="svg_4" points="32,44 4,44 4,4 32,4 32,11.308 36,7.309 36,0 35.766,0 32,0 4,0 0.234,0 0,0 0,48 0.234,48 4,48 32,48 35.766,48    36,48 36,25.387 32,29.387  "/>
 </g>
</svg>