<svg width="512" height="512" xmlns="http://www.w3.org/2000/svg">

 <g>
  <title>background</title>
  <rect fill="none" id="canvas_background" height="402" width="582" y="-1" x="-1"/>
 </g>
 <g>
  <title>Layer 1</title>
  <path id="svg_2" fill="#ffffff" d="m256,274.1c-75.6,0 -137.1,-61.5 -137.1,-137.1s61.5,-137 137.1,-137c75.6,0 137.1,61.5 137.1,137.1s-61.5,137 -137.1,137zm0,-253.7c-64.3,0 -116.6,52.3 -116.6,116.6s52.3,116.7 116.6,116.7c64.3,0 116.6,-52.3 116.6,-116.6s-52.3,-116.7 -116.6,-116.7z"/>
  <path id="svg_3" fill="#ffffff" d="m493.9,512c-5.6,0 -10.2,-4.6 -10.2,-10.2c0,-125.5 -102.1,-227.6 -227.6,-227.6c-125.5,0 -227.6,102.1 -227.6,227.6c0,5.6 -4.6,10.2 -10.2,10.2s-10.2,-4.6 -10.2,-10.2c0,-66.3 25.8,-128.6 72.7,-175.4s109.2,-72.7 175.4,-72.7s128.6,25.8 175.4,72.7s72.7,109.2 72.7,175.4c-0.2,5.6 -4.8,10.2 -10.4,10.2z"/>
 </g>
</svg>